<svg xmlns="http://www.w3.org/2000/svg" viewBox="0 0 256 256">
  <defs>
    <linearGradient id="bg" x1="0%" y1="0%" x2="100%" y2="100%">
      <stop offset="0%" style="stop-color:#1a1a2e;stop-opacity:1"/>
      <stop offset="100%" style="stop-color:#0f0f1e;stop-opacity:1"/>
    </linearGradient>
  </defs>
  <rect width="256" height="256" fill="url(#bg)"/>
  <line x1="64" y1="64" x2="192" y2="64" stroke="#4a5fc1" stroke-width="3" opacity="0.6"/>
  <line x1="64" y1="128" x2="192" y2="128" stroke="#4a5fc1" stroke-width="3" opacity="0.6"/>
  <line x1="64" y1="192" x2="192" y2="192" stroke="#4a5fc1" stroke-width="3" opacity="0.6"/>
  <line x1="64" y1="64" x2="64" y2="192" stroke="#4a5fc1" stroke-width="3" opacity="0.6"/>
  <line x1="128" y1="64" x2="128" y2="192" stroke="#4a5fc1" stroke-width="3" opacity="0.6"/>
  <line x1="192" y1="64" x2="192" y2="192" stroke="#4a5fc1" stroke-width="3" opacity="0.6"/>
  <line x1="64" y1="64" x2="128" y2="128" stroke="#7c3aed" stroke-width="2" opacity="0.5"/>
  <line x1="128" y1="64" x2="192" y2="128" stroke="#7c3aed" stroke-width="2" opacity="0.5"/>
  <line x1="64" y1="128" x2="128" y2="192" stroke="#7c3aed" stroke-width="2" opacity="0.5"/>
  <line x1="128" y1="128" x2="192" y2="192" stroke="#7c3aed" stroke-width="2" opacity="0.5"/>
  <line x1="64" y1="192" x2="192" y2="64" stroke="#7c3aed" stroke-width="2" opacity="0.4"/>
  <circle cx="64" cy="64" r="12" fill="#6366f1"/>
  <circle cx="128" cy="64" r="12" fill="#8b5cf6"/>
  <circle cx="192" cy="64" r="12" fill="#6366f1"/>
  <circle cx="64" cy="128" r="12" fill="#8b5cf6"/>
  <circle cx="128" cy="128" r="16" fill="#a78bfa"/>
  <circle cx="192" cy="128" r="12" fill="#8b5cf6"/>
  <circle cx="64" cy="192" r="12" fill="#6366f1"/>
  <circle cx="128" cy="192" r="12" fill="#8b5cf6"/>
  <circle cx="192" cy="192" r="12" fill="#6366f1"/>
  <circle cx="128" cy="128" r="8" fill="#e0e7ff"/>
</svg>